<?xml version="1.0" encoding="UTF-8" standalone="no"?>
<!-- Created with Inkscape (http://www.inkscape.org/) -->

<svg
   width="210mm"
   height="297mm"
   viewBox="0 0 210 297"
   version="1.1"
   id="svg1"
   inkscape:version="1.3.2 (091e20e, 2023-11-25, custom)"
   sodipodi:docname="sketch.svg"
   inkscape:export-filename="drawing.pdf"
   inkscape:export-xdpi="96"
   inkscape:export-ydpi="96"
   xmlns:inkscape="http://www.inkscape.org/namespaces/inkscape"
   xmlns:sodipodi="http://sodipodi.sourceforge.net/DTD/sodipodi-0.dtd"
   xmlns="http://www.w3.org/2000/svg"
   xmlns:svg="http://www.w3.org/2000/svg">
  <sodipodi:namedview
     id="namedview1"
     pagecolor="#ffffff"
     bordercolor="#000000"
     borderopacity="0.25"
     inkscape:showpageshadow="2"
     inkscape:pageopacity="0.0"
     inkscape:pagecheckerboard="0"
     inkscape:deskcolor="#d1d1d1"
     inkscape:document-units="mm"
     inkscape:zoom="4.0970529"
     inkscape:cx="128.50701"
     inkscape:cy="80.423663"
     inkscape:window-width="1920"
     inkscape:window-height="1009"
     inkscape:window-x="-8"
     inkscape:window-y="-8"
     inkscape:window-maximized="1"
     inkscape:current-layer="layer1" />
  <defs
     id="defs1">
    <marker
       style="overflow:visible"
       id="marker12"
       refX="0"
       refY="0"
       orient="auto-start-reverse"
       inkscape:stockid="Dart arrow"
       markerWidth="1"
       markerHeight="1"
       viewBox="0 0 1 1"
       inkscape:isstock="true"
       inkscape:collect="always"
       preserveAspectRatio="xMidYMid">
      <path
         style="fill:context-stroke;fill-rule:evenodd;stroke:none"
         d="M 0,0 5,-5 -12.5,0 5,5 Z"
         transform="scale(-0.5)"
         id="path12" />
    </marker>
    <marker
       style="overflow:visible"
       id="DartArrow"
       refX="0"
       refY="0"
       orient="auto-start-reverse"
       inkscape:stockid="Dart arrow"
       markerWidth="1"
       markerHeight="1"
       viewBox="0 0 1 1"
       inkscape:isstock="true"
       inkscape:collect="always"
       preserveAspectRatio="xMidYMid">
      <path
         style="fill:context-stroke;fill-rule:evenodd;stroke:none"
         d="M 0,0 5,-5 -12.5,0 5,5 Z"
         transform="scale(-0.5)"
         id="path6" />
    </marker>
    <linearGradient
       id="swatch9"
       inkscape:swatch="solid">
      <stop
         style="stop-color:#de8787;stop-opacity:1;"
         offset="0"
         id="stop9" />
    </linearGradient>
  </defs>
  <g
     inkscape:label="Layer 1"
     inkscape:groupmode="layer"
     id="layer1">
    <g
       inkscape:label=""
       transform="translate(40.047472,19.795385)"
       id="g24" />
    <path
       style="fill:#000000;stroke-width:0.264583"
       d="m 17.307156,106.55525 90.281354,0.25832"
       id="path2" />
    <path
       style="fill:#000000;stroke-width:0.264583"
       d="M 28.931364,119.85851 137.16567,118.56693"
       id="path3" />
    <path
       style="fill:#000000;stroke-width:0.264583"
       d="M 31.514523,94.285251 152.14798,89.893885"
       id="path4" />
    <path
       style="fill:#000000;stroke-width:0.264583"
       d="M 167.90524,118.30862 57.862729,125.54146"
       id="path5" />
    <g
       id="g1">
      <circle
         id="path13"
         style="fill:#ff0b0b;stroke:#2b0000;stroke-width:0.264583"
         cx="5.3938894"
         cy="25.527864"
         r="0.0022988704" />
      <g
         id="g68"
         transform="translate(4.1330522,0.19373682)">
        <g
           inkscape:label=""
           transform="translate(32.746758,25.73338)"
           id="g29">
          <g
             fill="#000000"
             fill-opacity="1"
             id="g28"
             transform="matrix(0.352778,0,0,0.352778,-42.0957,-2.76847)">
            <g
               id="g27"
               transform="translate(119.092,11.457)">
              <path
                 d="m 1.15625,-1.78125 c 0.28125,0.109375 0.53125,0.109375 0.734375,0.109375 0.25,0 0.703125,0 0.703125,-0.28125 0,-0.203125 -0.3125,-0.234375 -0.625,-0.234375 -0.40625,0 -0.625,0.078125 -0.796875,0.15625 C 1.0625,-2.09375 0.875,-2.234375 0.875,-2.46875 c 0,-0.421875 0.734375,-0.703125 1.53125,-0.703125 0.25,0 0.5,0.03125 0.78125,0.21875 0.078125,0.046875 0.09375,0.0625 0.15625,0.0625 0.109375,0 0.234375,-0.109375 0.234375,-0.234375 0,-0.171875 -0.296875,-0.296875 -0.40625,-0.34375 -0.3125,-0.140625 -0.5625,-0.140625 -0.6875,-0.140625 -0.953125,0 -1.859375,0.546875 -1.859375,1.15625 0,0.296875 0.21875,0.484375 0.296875,0.546875 -0.5625,0.359375 -0.6875,0.78125 -0.6875,1.046875 0,0.546875 0.5,1.03125 1.390625,1.03125 1.15625,0 1.578125,-0.734375 1.578125,-0.84375 0,-0.046875 -0.03125,-0.109375 -0.109375,-0.109375 -0.046875,0 -0.078125,0.03125 -0.109375,0.078125 C 2.875,-0.515625 2.703125,-0.25 1.71875,-0.25 c -0.21875,0 -1.234375,0 -1.234375,-0.65625 0,-0.234375 0.1875,-0.609375 0.671875,-0.875 z m 1.140625,-0.140625 c -0.109375,0.03125 -0.125,0.03125 -0.40625,0.03125 -0.078125,0 -0.25,0 -0.375,-0.015625 0.203125,-0.046875 0.375,-0.0625 0.4375,-0.0625 0.15625,0 0.25,0.015625 0.34375,0.03125 z m 0,0"
                 id="path27" />
            </g>
          </g>
        </g>
        <path
           style="fill:#ff0b0b;fill-opacity:0;stroke:#2b0000;stroke-width:0.1;stroke-dasharray:none;marker-end:url(#DartArrow)"
           d="M 5.424631,25.508681 33.839364,25.314944"
           id="path10" />
        <path
           style="fill:#ff0b0b;fill-opacity:0;stroke:#2b0000;stroke-width:0.1;stroke-dasharray:none;marker-end:url(#marker12)"
           d="M 5.489209,25.508681 V 3.0352101"
           id="path11" />
        <path
           style="fill:#ff0b0b;fill-opacity:0;stroke:#2b0000;stroke-width:0.1;stroke-dasharray:none"
           d="M 5.576545,25.619195 C 7.896184,20.787611 10.476896,16.062762 14.473056,13.071101 20.377692,8.6506899 28.186139,5.8309989 33.797023,5.0246379"
           id="path14"
           sodipodi:nodetypes="csc" />
        <path
           style="fill:#ff0b0b;fill-opacity:0;stroke:#2b0000;stroke-width:0.1;stroke-dasharray:0.2, 0.1;stroke-dashoffset:0"
           d="M 5.987523,23.107663 16.535954,8.9060949"
           id="path15" />
        <path
           style="fill:#ff0b0b;fill-opacity:0;stroke:#2b0000;stroke-width:0.1;stroke-dasharray:0.2, 0.1;stroke-dashoffset:0"
           d="M 15.577007,11.691612 31.057172,4.3396743"
           id="path16" />
        <g
           inkscape:label=""
           transform="matrix(0.40745528,0,0,0.40745528,8.818706,14.363013)"
           id="g39">
          <g
             fill="#000000"
             fill-opacity="1"
             id="g7"
             transform="matrix(0.352778,0,0,0.352778,-38.8914,-1.98495)">
            <g
               id="use6"
               transform="translate(109.759,10.361)">
              <path
                 d="m 5.515625,-1.609375 c 0.046875,-0.09375 0.046875,-0.125 0.046875,-0.125 0,-0.046875 -0.03125,-0.09375 -0.125,-0.09375 -0.015625,0 -0.046875,0 -0.078125,0.015625 0,0.015625 -0.015625,0.03125 -0.09375,0.203125 C 4.8125,-0.59375 4.453125,-0.25 3.3125,-0.25 H 2.125 c -0.203125,0 -0.21875,-0.015625 -0.21875,-0.078125 0,0 0,-0.03125 0.03125,-0.140625 L 2.40625,-2.328125 H 3.1875 c 0.546875,0 0.625,0.078125 0.625,0.3125 0,0.078125 -0.015625,0.203125 -0.046875,0.3125 C 3.75,-1.640625 3.75,-1.625 3.75,-1.609375 c 0,0 0,0.09375 0.125,0.09375 0.09375,0 0.09375,-0.03125 0.125,-0.15625 l 0.390625,-1.53125 c 0.015625,-0.078125 0.015625,-0.09375 0.015625,-0.09375 0,-0.078125 -0.0625,-0.109375 -0.125,-0.109375 -0.09375,0 -0.09375,0.046875 -0.140625,0.1875 C 4,-2.671875 3.796875,-2.578125 3.203125,-2.578125 H 2.46875 L 2.890625,-4.25 c 0.046875,-0.203125 0.0625,-0.234375 0.34375,-0.234375 H 4.375 c 0.921875,0 1.140625,0.1875 1.140625,0.8125 0,0.1875 -0.03125,0.390625 -0.03125,0.421875 0,0.0625 0.03125,0.125 0.125,0.125 0.109375,0 0.109375,-0.0625 0.125,-0.1875 l 0.125,-1.203125 C 5.875,-4.734375 5.828125,-4.734375 5.65625,-4.734375 H 1.828125 c -0.140625,0 -0.21875,0 -0.21875,0.15625 0,0.09375 0.0625,0.09375 0.21875,0.09375 0.109375,0 0.140625,0 0.265625,0.015625 C 2.234375,-4.453125 2.25,-4.4375 2.25,-4.375 c 0,0.046875 -0.015625,0.125 -0.03125,0.15625 L 1.3125,-0.578125 C 1.234375,-0.296875 1.234375,-0.25 0.6875,-0.25 c -0.125,0 -0.203125,0 -0.203125,0.15625 C 0.484375,0 0.5625,0 0.6875,0 H 4.625 c 0.171875,0 0.1875,0 0.234375,-0.125 z m 0,0"
                 id="path34" />
            </g>
          </g>
          <g
             fill="#000000"
             fill-opacity="1"
             id="g10"
             transform="matrix(0.352778,0,0,0.352778,-38.8914,-1.98495)">
            <g
               id="use7"
               transform="translate(115.607,11.418)">
              <path
                 d="m 3.15625,-1.296875 c 0,-0.5 -0.421875,-0.90625 -1.046875,-0.90625 -0.84375,0 -1.578125,0.671875 -1.578125,1.34375 0,0.515625 0.40625,0.921875 1.046875,0.921875 0.828125,0 1.578125,-0.6875 1.578125,-1.359375 z m -1.578125,1.1875 c -0.234375,0 -0.59375,-0.125 -0.59375,-0.59375 0,-0.140625 0.0625,-0.625 0.34375,-0.96875 0.1875,-0.21875 0.484375,-0.359375 0.765625,-0.359375 0.28125,0 0.59375,0.140625 0.59375,0.578125 0,0.140625 -0.0625,0.609375 -0.296875,0.921875 -0.234375,0.296875 -0.5625,0.421875 -0.8125,0.421875 z m 0,0"
                 id="path35" />
            </g>
            <g
               id="use8"
               transform="translate(119.10786,11.418)">
              <path
                 d="m 1.421875,-1.125 c 0.5,0 1.390625,-0.0625 1.390625,-0.625 0,-0.265625 -0.25,-0.453125 -0.71875,-0.453125 -0.671875,0 -1.53125,0.453125 -1.53125,1.28125 0,0.453125 0.296875,0.984375 1.046875,0.984375 0.09375,0 0.5,0 0.828125,-0.140625 0.328125,-0.125 0.53125,-0.359375 0.53125,-0.40625 0,-0.046875 -0.0625,-0.125 -0.109375,-0.125 -0.015625,0 -0.03125,0.015625 -0.109375,0.09375 -0.25,0.265625 -0.6875,0.40625 -1.140625,0.40625 -0.40625,0 -0.59375,-0.265625 -0.59375,-0.640625 0,-0.046875 0,-0.171875 0.046875,-0.375 z m -0.3125,-0.171875 c 0.21875,-0.6875 0.828125,-0.734375 0.984375,-0.734375 0.25,0 0.46875,0.09375 0.46875,0.28125 0,0.453125 -0.9375,0.453125 -1.171875,0.453125 z m 0,0"
                 id="path36" />
            </g>
            <g
               id="use9"
               transform="translate(122.4802,11.418)">
              <path
                 d="M 3.296875,-3.265625 C 3.3125,-3.34375 3.3125,-3.34375 3.3125,-3.375 3.3125,-3.453125 3.25,-3.453125 3.171875,-3.453125 l -0.625,0.046875 c -0.078125,0 -0.09375,0 -0.109375,0.03125 -0.03125,0.015625 -0.046875,0.078125 -0.046875,0.109375 0,0.078125 0.09375,0.078125 0.15625,0.078125 0,0 0.09375,0 0.171875,0.015625 0.09375,0.015625 0.09375,0.03125 0.09375,0.0625 0,0.03125 -0.03125,0.171875 -0.0625,0.265625 l -0.234375,0.9375 c -0.09375,-0.125 -0.28125,-0.296875 -0.59375,-0.296875 -0.703125,0 -1.40625,0.6875 -1.40625,1.390625 0,0.515625 0.375,0.875 0.875,0.875 0.40625,0 0.734375,-0.296875 0.796875,-0.359375 0.078125,0.25 0.359375,0.359375 0.578125,0.359375 0.203125,0 0.34375,-0.125 0.4375,-0.28125 0.140625,-0.203125 0.203125,-0.46875 0.203125,-0.5 0,-0.0625 -0.078125,-0.0625 -0.109375,-0.0625 -0.078125,0 -0.09375,0.03125 -0.109375,0.109375 -0.09375,0.359375 -0.21875,0.5625 -0.390625,0.5625 -0.140625,0 -0.203125,-0.109375 -0.203125,-0.265625 0,-0.0625 0,-0.109375 0.015625,-0.15625 z M 2.21875,-0.65625 c -0.03125,0.0625 -0.03125,0.078125 -0.109375,0.171875 -0.1875,0.21875 -0.453125,0.375 -0.703125,0.375 -0.171875,0 -0.4375,-0.09375 -0.4375,-0.515625 0,-0.234375 0.125,-0.75 0.296875,-1.015625 0.1875,-0.265625 0.453125,-0.390625 0.65625,-0.390625 0.21875,0 0.4375,0.125 0.515625,0.4375 z m 0,0"
                 id="path37" />
            </g>
            <g
               id="use10"
               transform="translate(126.16486,11.418)">
              <path
                 d="m 1.34375,-0.0625 c 0,0.46875 -0.25,0.75 -0.390625,0.859375 -0.046875,0.03125 -0.0625,0.046875 -0.0625,0.078125 0,0.03125 0.046875,0.09375 0.09375,0.09375 0.0625,0 0.53125,-0.390625 0.53125,-1.015625 0,-0.34375 -0.15625,-0.5625 -0.375,-0.5625 -0.1875,0 -0.296875,0.15625 -0.296875,0.3125 C 0.84375,-0.140625 0.953125,0 1.140625,0 1.21875,0 1.296875,-0.015625 1.34375,-0.0625 Z m 0,0"
                 id="path38" />
            </g>
          </g>
          <g
             fill="#000000"
             fill-opacity="1"
             id="g11"
             transform="matrix(0.352778,0,0,0.352778,-38.8914,-1.98495)">
            <g
               id="use11"
               transform="translate(128.44901,11.418)">
              <path
                 d="M 1.984375,-3.171875 C 1.984375,-3.3125 1.96875,-3.3125 1.796875,-3.3125 1.453125,-3 0.890625,-3 0.796875,-3 H 0.71875 v 0.21875 h 0.078125 c 0.109375,0 0.4375,-0.015625 0.734375,-0.140625 v 2.5 c 0,0.140625 0,0.203125 -0.53125,0.203125 H 0.75 V 0 c 0.265625,-0.015625 0.71875,-0.015625 1,-0.015625 0.296875,0 0.734375,0 1.015625,0.015625 v -0.21875 h -0.25 c -0.53125,0 -0.53125,-0.0625 -0.53125,-0.203125 z m 0,0"
                 id="path39" />
            </g>
          </g>
        </g>
        <g
           inkscape:label=""
           transform="matrix(0.49100254,0,0,0.49100254,20.463078,6.5087719)"
           id="g58">
          <g
             fill="#000000"
             fill-opacity="1"
             id="g50"
             transform="matrix(0.352778,0,0,0.352778,-23.3211,-1.6155)">
            <g
               id="g49"
               transform="translate(65.528999,7.9699998)">
              <path
                 d="M 4.59375,-1.1875 C 4.609375,-1.203125 4.625,-1.25 4.625,-1.265625 c 0,-0.03125 -0.015625,-0.09375 -0.09375,-0.09375 -0.078125,0 -0.078125,0.015625 -0.140625,0.140625 -0.359375,0.765625 -0.640625,1 -1.53125,1 h -1 c -0.046875,0 -0.109375,0 -0.15625,-0.015625 0,-0.046875 0,-0.046875 0.015625,-0.09375 l 0.328125,-1.3125 H 2.6875 c 0.484375,0 0.5,0.078125 0.5,0.234375 0,0.046875 0,0.09375 -0.03125,0.21875 0,0.015625 0,0.03125 0,0.046875 0,0 0,0.078125 0.09375,0.078125 0.078125,0 0.09375,-0.03125 0.109375,-0.109375 l 0.296875,-1.125 c 0,-0.015625 0,-0.046875 0,-0.078125 0,-0.015625 -0.015625,-0.078125 -0.09375,-0.078125 -0.09375,0 -0.09375,0.03125 -0.125,0.109375 C 3.328125,-1.9375 3.171875,-1.875 2.703125,-1.875 H 2.09375 L 2.375,-3 c 0.046875,-0.15625 0.046875,-0.15625 0.25,-0.15625 h 0.96875 c 0.71875,0 0.921875,0.109375 0.921875,0.640625 0,0.0625 -0.015625,0.15625 -0.015625,0.234375 0,0.0625 0.046875,0.09375 0.109375,0.09375 0.09375,0 0.09375,-0.046875 0.109375,-0.140625 L 4.796875,-3.21875 4.8125,-3.296875 c 0,-0.09375 -0.078125,-0.09375 -0.171875,-0.09375 h -3.09375 c -0.09375,0 -0.171875,0 -0.171875,0.140625 0,0.09375 0.0625,0.09375 0.1875,0.09375 0.046875,0 0.21875,0 0.3125,0.03125 0,0.046875 0,0.0625 -0.015625,0.125 L 1.21875,-0.40625 c -0.046875,0.140625 -0.046875,0.1875 -0.4375,0.1875 -0.125,0 -0.203125,0 -0.203125,0.140625 C 0.578125,0 0.65625,0 0.75,0 h 3.171875 c 0.125,0 0.125,0 0.171875,-0.09375 z m 0,0"
                 id="path49" />
            </g>
          </g>
          <g
             fill="#000000"
             fill-opacity="1"
             id="g55"
             transform="matrix(0.352778,0,0,0.352778,-23.3211,-1.6155)">
            <g
               id="g51"
               transform="translate(70.544998,9.7139997)">
              <path
                 d="m 3.15625,-1.296875 c 0,-0.5 -0.421875,-0.90625 -1.046875,-0.90625 -0.84375,0 -1.578125,0.671875 -1.578125,1.34375 0,0.515625 0.40625,0.921875 1.046875,0.921875 0.828125,0 1.578125,-0.6875 1.578125,-1.359375 z m -1.578125,1.1875 c -0.234375,0 -0.59375,-0.125 -0.59375,-0.59375 0,-0.140625 0.0625,-0.625 0.34375,-0.96875 0.1875,-0.21875 0.484375,-0.359375 0.765625,-0.359375 0.28125,0 0.59375,0.140625 0.59375,0.578125 0,0.140625 -0.0625,0.609375 -0.296875,0.921875 -0.234375,0.296875 -0.5625,0.421875 -0.8125,0.421875 z m 0,0"
                 id="path50" />
            </g>
            <g
               id="g52"
               transform="translate(74.04586,9.7139997)">
              <path
                 d="m 1.421875,-1.125 c 0.5,0 1.390625,-0.0625 1.390625,-0.625 0,-0.265625 -0.25,-0.453125 -0.71875,-0.453125 -0.671875,0 -1.53125,0.453125 -1.53125,1.28125 0,0.453125 0.296875,0.984375 1.046875,0.984375 0.09375,0 0.5,0 0.828125,-0.140625 0.328125,-0.125 0.53125,-0.359375 0.53125,-0.40625 0,-0.046875 -0.0625,-0.125 -0.109375,-0.125 -0.015625,0 -0.03125,0.015625 -0.109375,0.09375 -0.25,0.265625 -0.6875,0.40625 -1.140625,0.40625 -0.40625,0 -0.59375,-0.265625 -0.59375,-0.640625 0,-0.046875 0,-0.171875 0.046875,-0.375 z m -0.3125,-0.171875 c 0.21875,-0.6875 0.828125,-0.734375 0.984375,-0.734375 0.25,0 0.46875,0.09375 0.46875,0.28125 0,0.453125 -0.9375,0.453125 -1.171875,0.453125 z m 0,0"
                 id="path51" />
            </g>
            <g
               id="g53"
               transform="translate(77.418198,9.7139997)">
              <path
                 d="M 3.296875,-3.265625 C 3.3125,-3.34375 3.3125,-3.34375 3.3125,-3.375 3.3125,-3.453125 3.25,-3.453125 3.171875,-3.453125 l -0.625,0.046875 c -0.078125,0 -0.09375,0 -0.109375,0.03125 -0.03125,0.015625 -0.046875,0.078125 -0.046875,0.109375 0,0.078125 0.09375,0.078125 0.15625,0.078125 0,0 0.09375,0 0.171875,0.015625 0.09375,0.015625 0.09375,0.03125 0.09375,0.0625 0,0.03125 -0.03125,0.171875 -0.0625,0.265625 l -0.234375,0.9375 c -0.09375,-0.125 -0.28125,-0.296875 -0.59375,-0.296875 -0.703125,0 -1.40625,0.6875 -1.40625,1.390625 0,0.515625 0.375,0.875 0.875,0.875 0.40625,0 0.734375,-0.296875 0.796875,-0.359375 0.078125,0.25 0.359375,0.359375 0.578125,0.359375 0.203125,0 0.34375,-0.125 0.4375,-0.28125 0.140625,-0.203125 0.203125,-0.46875 0.203125,-0.5 0,-0.0625 -0.078125,-0.0625 -0.109375,-0.0625 -0.078125,0 -0.09375,0.03125 -0.109375,0.109375 -0.09375,0.359375 -0.21875,0.5625 -0.390625,0.5625 -0.140625,0 -0.203125,-0.109375 -0.203125,-0.265625 0,-0.0625 0,-0.109375 0.015625,-0.15625 z M 2.21875,-0.65625 c -0.03125,0.0625 -0.03125,0.078125 -0.109375,0.171875 -0.1875,0.21875 -0.453125,0.375 -0.703125,0.375 -0.171875,0 -0.4375,-0.09375 -0.4375,-0.515625 0,-0.234375 0.125,-0.75 0.296875,-1.015625 0.1875,-0.265625 0.453125,-0.390625 0.65625,-0.390625 0.21875,0 0.4375,0.125 0.515625,0.4375 z m 0,0"
                 id="path52" />
            </g>
            <g
               id="g54"
               transform="translate(81.102867,9.7139997)">
              <path
                 d="m 1.34375,-0.0625 c 0,0.46875 -0.25,0.75 -0.390625,0.859375 -0.046875,0.03125 -0.0625,0.046875 -0.0625,0.078125 0,0.03125 0.046875,0.09375 0.09375,0.09375 0.0625,0 0.53125,-0.390625 0.53125,-1.015625 0,-0.34375 -0.15625,-0.5625 -0.375,-0.5625 -0.1875,0 -0.296875,0.15625 -0.296875,0.3125 C 0.84375,-0.140625 0.953125,0 1.140625,0 1.21875,0 1.296875,-0.015625 1.34375,-0.0625 Z m 0,0"
                 id="path53" />
            </g>
          </g>
          <g
             fill="#000000"
             fill-opacity="1"
             id="g57"
             transform="matrix(0.352778,0,0,0.352778,-23.3211,-1.6155)">
            <g
               id="g56"
               transform="translate(83.386002,9.7139997)">
              <path
                 d="M 2.9375,-0.96875 H 2.71875 c 0,0.09375 -0.0625,0.40625 -0.140625,0.453125 -0.03125,0.03125 -0.453125,0.03125 -0.53125,0.03125 H 1.078125 C 1.40625,-0.71875 1.765625,-1 2.0625,-1.203125 c 0.453125,-0.3125 0.875,-0.59375 0.875,-1.125 0,-0.640625 -0.609375,-0.984375 -1.3125,-0.984375 -0.671875,0 -1.171875,0.375 -1.171875,0.875 0,0.25 0.21875,0.296875 0.296875,0.296875 0.125,0 0.28125,-0.09375 0.28125,-0.296875 0,-0.171875 -0.125,-0.28125 -0.28125,-0.28125 0.140625,-0.234375 0.4375,-0.375 0.765625,-0.375 0.484375,0 0.890625,0.28125 0.890625,0.765625 0,0.421875 -0.296875,0.75 -0.671875,1.0625 l -1.21875,1.03125 C 0.46875,-0.1875 0.453125,-0.1875 0.453125,-0.15625 V 0 h 2.3125 z m 0,0"
                 id="path55" />
            </g>
          </g>
        </g>
      </g>
      <g
         inkscape:label=""
         transform="translate(6.5224549,2.3571737)"
         id="g60">
        <g
           fill="#000000"
           fill-opacity="1"
           id="g67"
           transform="matrix(0.352778,0,0,0.352778,-25.9117,-0.945709)">
          <g
             inkscape:label=""
             transform="matrix(2.83464,0,0,2.83464,74.182425,3.2299436)"
             id="g66">
            <g
               fill="#000000"
               fill-opacity="1"
               id="g3"
               transform="matrix(0.352778,0,0,0.352778,-25.9117,-0.945709)">
              <g
                 id="g65"
                 transform="translate(72.934998,7.9699998)">
                <path
                   d="m 3.4375,-1.765625 c 0.09375,0 0.140625,0 0.203125,-0.046875 0.03125,-0.03125 0.078125,-0.09375 0.078125,-0.171875 0,-0.15625 -0.140625,-0.15625 -0.21875,-0.15625 H 2.03125 c -0.84375,0 -1.515625,0.75 -1.515625,1.34375 0,0.515625 0.4375,0.859375 0.984375,0.859375 0.71875,0 1.46875,-0.5625 1.46875,-1.3125 0,-0.203125 -0.046875,-0.375 -0.15625,-0.515625 z m -1.921875,1.65625 c -0.234375,0 -0.59375,-0.09375 -0.59375,-0.5625 0,-0.15625 0.0625,-1.09375 1.03125,-1.09375 0.375,0 0.609375,0.140625 0.609375,0.484375 0,0.5 -0.390625,1.171875 -1.046875,1.171875 z m 0,0"
                   id="path65" />
              </g>
            </g>
            <g
               fill="#000000"
               fill-opacity="1"
               id="g4"
               transform="matrix(0.352778,0,0,0.352778,-25.9117,-0.945709)">
              <g
                 id="use3"
                 transform="translate(77.174004,5.4619999)">
                <path
                   d="m 1.796875,-2.3125 c 0,-0.015625 0.046875,-0.109375 0.046875,-0.1875 0,-0.171875 -0.15625,-0.28125 -0.3125,-0.28125 -0.203125,0 -0.25,0.15625 -0.28125,0.21875 L 0.484375,-0.40625 C 0.46875,-0.34375 0.46875,-0.328125 0.46875,-0.3125 c 0,0.078125 0.203125,0.125 0.203125,0.125 0.046875,0 0.0625,-0.03125 0.09375,-0.09375 z m 0,0"
                   id="path66" />
              </g>
            </g>
          </g>
        </g>
      </g>
    </g>
  </g>
</svg>
